<?xml version="1.0" encoding="utf-8"?><svg width="667" height="353.7" viewBox="0 0 667 353.7" xmlns="http://www.w3.org/2000/svg" xmlns:xlink="http://www.w3.org/1999/xlink"><svg width="45" height="27" viewBox="-10 -10 45 27" id="left" xmlns="http://www.w3.org/2000/svg"><defs><path id="aa" d="M426 1598v1h-12v2l-10-2.5 10-2.5v2z"/></defs><use fill="#549bd6" xlink:href="#aa" transform="translate(-402 -1595)"/></svg><svg width="45" height="27" viewBox="-10 -10 45 27" id="left-w" x="45" xmlns="http://www.w3.org/2000/svg"><defs><path id="ba" d="M1535 887v1h-12v2l-10-2.5 10-2.5v2z"/></defs><use fill="#fff" xlink:href="#ba" transform="translate(-1511 -884)"/></svg><svg width="79" height="80" viewBox="-10 -10 79 80" id="plus" x="90" xmlns="http://www.w3.org/2000/svg"><defs><path id="ca" d="M420 1470v-1h28v-28h1v28h28v1h-28v28h-1v-28z"/></defs><use fill="#2b6ca2" xlink:href="#ca" transform="translate(-419 -1439)"/></svg><svg width="45" height="27" viewBox="-10 -10 45 27" id="right" x="169" xmlns="http://www.w3.org/2000/svg"><defs><path id="da" d="M677 1598v-1h12v-2l10 2.5-10 2.5v-2z"/></defs><use fill="#549bd6" xlink:href="#da" transform="translate(-676 -1594)"/></svg><svg width="45" height="27" viewBox="-10 -10 45 27" id="right-w" x="214" xmlns="http://www.w3.org/2000/svg"><defs><path id="ea" d="M1787 887v-1h12v-2l10 2.5-10 2.5v-2z"/></defs><use fill="#fff" xlink:href="#ea" opacity=".8" transform="translate(-1786 -883)"/></svg><svg viewBox="53 -141.8 353.7 353.7" fill="#0763a2" width="353.7" height="353.7" id="sign" x="259" xmlns="http://www.w3.org/2000/svg"><path d="M267.1 189.3c-1.1 0-2.2-.4-3.1-1.1-1.2-.9-1.9-2.4-1.9-3.9v-40.1c0-2.1 1.4-4 3.4-4.7 30.6-10.6 55.4-34.5 67.7-64.6h-66.1c-2.8 0-5-2.2-5-5V31.5c0-2.8 2.2-5 5-5h74.4c-1.6-37.7-21.6-72.2-53.1-92.1L252.5-4.4c-.9 1.5-2.5 2.5-4.3 2.5h-37.9c-1.8 0-3.4-1-4.3-2.5L170.7-66c-22.4 13.9-39.3 35.2-47.9 60.6-.7 2-2.6 3.4-4.7 3.4H78.7c-1.5 0-3-.7-3.9-1.9-.9-1.2-1.3-2.8-.9-4.3 14.4-58.2 59-103.4 116.3-118.1 2.3-.6 4.7.5 5.7 2.6l33.4 67 33.4-67c1.1-2.1 3.4-3.2 5.7-2.6C339.7-108 389.5-43.2 389.5 31.5c0 74.6-49.8 139.5-121.1 157.7-.5.1-.9.1-1.3.1zm5-41.5v30c63.5-19.2 107.4-78.4 107.4-146.3 0-68.7-44.9-128.6-109.7-147l-36 72.3c-.8 1.7-2.6 2.8-4.5 2.8s-3.6-1.1-4.5-2.8l-36-72.3C138.9-101.3 99.9-62.3 85.2-12h29.4c10.2-27.8 29.8-50.9 55.5-65.3 2.4-1.3 5.4-.5 6.8 1.9L213.2-12h32.1l37-63c1.4-2.4 4.4-3.2 6.8-1.8 38.6 21.9 62.5 63.4 62.5 108.3 0 2.8-2.2 5-5 5h-74.5v28.4h68.2c1.6 0 3.1.8 4.1 2.1.9 1.3 1.2 3 .7 4.5-11.8 35.1-38.9 63.3-73 76.3z"/><path d="M229.2 194.1c-13.2 0-26.3-1.7-39.1-4.9-2.2-.6-3.8-2.6-3.8-4.8V74.9h-61.1c6.9 16.9 17.6 32 31.5 43.8 1.1 1 1.7 2.3 1.7 3.8V169c0 1.8-.9 3.4-2.5 4.3-1.5.9-3.4.9-5 0-50.6-28.7-82-83.1-82-141.9 0-2.8 2.2-5 5-5h155.2c2.8 0 5 2.2 5 5V189c.1 2.9-2.1 5.1-4.9 5.1zm-32.8-13.7c9.2 2.1 18.5 3.3 27.9 3.6V36.5H79.1c1.6 50.4 27.7 96.7 69.4 123.7v-35.4c-16.1-14.3-28.2-32.7-35.1-53.3-.5-1.5-.3-3.2.7-4.5.9-1.3 2.5-2.1 4.1-2.1h73.2c2.8 0 5 2.2 5 5v110.5z"/></svg><svg width="27" height="45" viewBox="-10 -10 27 45" id="top" x="613" xmlns="http://www.w3.org/2000/svg"><defs><path id="ga" d="M1833 1698h-1v-12h-2l2.5-10 2.5 10h-2z"/></defs><use fill="#549bd6" xlink:href="#ga" transform="translate(-1829 -1674)"/></svg><svg width="27" height="45" viewBox="-10 -10 27 45" id="top-w" x="640" xmlns="http://www.w3.org/2000/svg"><defs><path id="ha" d="M1611 132h-1v-12h-2l2.5-10 2.5 10h-2z"/></defs><use fill="#fff" xlink:href="#ha" transform="translate(-1607 -108)"/></svg></svg>