<svg xmlns="http://www.w3.org/2000/svg" xmlns:xlink="http://www.w3.org/1999/xlink" width="671" height="291" viewBox="0 0 671 291"><defs><path id="d5oaa" d="M1097 498V365h44v88h34v-88h44v221h-44v-89h-34v1z"/><path id="d5oab" d="M1218 332h1v288h-1z"/><path id="d5oac" d="M1174 332h1v288h-1z"/><path id="d5oad" d="M1083 365v-1h70v1z"/><path id="d5oae" d="M1161 365v-1h70v1z"/><path id="d5oaf" d="M1161 587v-1h70v1z"/><path id="d5oag" d="M1083 454v-1h148v1z"/><path id="d5oah" d="M1083 498v-1h148v1z"/><path id="d5oai" d="M1097 531h-1V332h1z"/><path id="d5oaj" d="M1141 531h-1V332h1z"/><path id="d5oak" d="M703 498V365h44v88h34v-88h44v221h-44v-89h-34v1z"/><path id="d5oal" d="M824 332h1v288h-1z"/><path id="d5oam" d="M780 332h1v288h-1z"/><path id="d5oan" d="M689 365v-1h70v1z"/><path id="d5oao" d="M767 365v-1h70v1z"/><path id="d5oap" d="M767 587v-1h70v1z"/><path id="d5oaq" d="M689 454v-1h148v1z"/><path id="d5oar" d="M689 498v-1h148v1z"/><path id="d5oas" d="M703 531h-1V332h1z"/><path id="d5oat" d="M747 531h-1V332h1z"/><path id="d5oau" d="M960 332h1v288h-1z"/><path id="d5oav" d="M1061.97 373.82l.7.71-203.64 203.65-.7-.71z"/></defs><g><g transform="translate(-624 -330)"><g fill="#fff" font-family="'ProximaNova','ProximaNova-Regular'" font-size="18" font-style="none" font-weight="400" style="text-transform:uppercase;line-height:35.4px"><text dominant-baseline="text-before-edge" font-family="Helvetica, Arial, sans-serif" transform="translate(624 469)"><tspan letter-spacing="3.6" style="font-kerning:normal">Страница недоступна, или не существовала вовсе</tspan></text></g></g><g transform="translate(-624 -330)"><g opacity=".2"><use fill="#fff" xlink:href="#d5oaa"/></g><g><use fill="#fff" xlink:href="#d5oab"/></g><g><use fill="#fff" xlink:href="#d5oac"/></g><g><use fill="#fff" xlink:href="#d5oad"/></g><g><use fill="#fff" xlink:href="#d5oae"/></g><g><use fill="#fff" xlink:href="#d5oaf"/></g><g><use fill="#fff" xlink:href="#d5oag"/></g><g><use fill="#fff" xlink:href="#d5oah"/></g><g><use fill="#fff" xlink:href="#d5oai"/></g><g><use fill="#fff" xlink:href="#d5oaj"/></g></g><g transform="translate(-624 -330)"><g opacity=".2"><use fill="#fff" xlink:href="#d5oak"/></g><g><use fill="#fff" xlink:href="#d5oal"/></g><g><use fill="#fff" xlink:href="#d5oam"/></g><g><use fill="#fff" xlink:href="#d5oan"/></g><g><use fill="#fff" xlink:href="#d5oao"/></g><g><use fill="#fff" xlink:href="#d5oap"/></g><g><use fill="#fff" xlink:href="#d5oaq"/></g><g><use fill="#fff" xlink:href="#d5oar"/></g><g><use fill="#fff" xlink:href="#d5oas"/></g><g><use fill="#fff" xlink:href="#d5oat"/></g></g><g transform="translate(-624 -330)"/><g transform="translate(-624 -330)"><use fill="#fff" xlink:href="#d5oau"/></g><g transform="translate(-624 -330)"><use fill="#fff" xlink:href="#d5oav"/></g></g></svg>